<svg width="320" height="68" fill="none" xmlns="http://www.w3.org/2000/svg"><g clip-path="url(#a)"><path d="M142.686 54.846a.308.308 0 0 1-.224-.096.307.307 0 0 1-.096-.224c0-.053.005-.112.016-.176l3.968-10.352a.645.645 0 0 1 .176-.256c.075-.064.187-.096.336-.096h1.088c.139 0 .245.032.32.096.085.064.149.15.192.256l3.952 10.352a.57.57 0 0 1 .032.176c0 .085-.032.16-.096.224a.308.308 0 0 1-.224.096h-.816c-.128 0-.224-.032-.288-.096a.68.68 0 0 1-.112-.176l-.88-2.272h-5.248l-.88 2.272a.373.373 0 0 1-.112.176c-.064.064-.16.096-.288.096h-.816zm2.56-3.92h4.32l-2.16-5.68-2.16 5.68zm9.087 6.96a.37.37 0 0 1-.272-.112.346.346 0 0 1-.096-.256V46.894c0-.106.032-.192.096-.256a.37.37 0 0 1 .272-.112h.736a.32.32 0 0 1 .256.112.32.32 0 0 1 .112.256v.704a3.067 3.067 0 0 1 1.024-.88c.427-.235.96-.352 1.6-.352.597 0 1.104.102 1.52.304.427.203.773.48 1.04.832.277.352.485.752.624 1.2.139.448.213.928.224 1.44.011.17.016.352.016.544 0 .192-.005.373-.016.544a5.346 5.346 0 0 1-.224 1.44 3.688 3.688 0 0 1-.624 1.2 2.993 2.993 0 0 1-1.04.832c-.416.203-.923.304-1.52.304-.619 0-1.141-.112-1.568-.336a3.401 3.401 0 0 1-1.024-.864v3.712a.346.346 0 0 1-.096.256.34.34 0 0 1-.272.112h-.768zm3.392-4.176c.555 0 .987-.117 1.296-.352.32-.245.549-.56.688-.944.139-.395.219-.816.24-1.264.011-.31.011-.618 0-.928a4.229 4.229 0 0 0-.24-1.248 1.936 1.936 0 0 0-.688-.944c-.309-.245-.741-.368-1.296-.368-.523 0-.949.123-1.28.368-.32.245-.56.56-.72.944a3.606 3.606 0 0 0-.256 1.152c-.011.17-.016.373-.016.608s.005.443.016.624c.011.373.096.742.256 1.104.171.363.421.661.752.896s.747.352 1.248.352zm9.163 1.296c-.811 0-1.488-.154-2.032-.464a3.134 3.134 0 0 1-1.248-1.28c-.288-.554-.448-1.184-.48-1.888-.011-.181-.016-.41-.016-.688 0-.288.005-.517.016-.688.032-.715.192-1.344.48-1.888.299-.544.72-.97 1.264-1.28.544-.31 1.216-.464 2.016-.464s1.472.155 2.016.464c.544.31.96.736 1.248 1.28.299.544.464 1.173.496 1.888.011.17.016.4.016.688 0 .278-.005.507-.016.688-.032.704-.192 1.334-.48 1.888-.288.544-.704.97-1.248 1.28-.544.31-1.221.464-2.032.464zm0-1.232c.661 0 1.189-.208 1.584-.624.395-.426.608-1.045.64-1.856.011-.16.016-.362.016-.608 0-.245-.005-.448-.016-.608-.032-.81-.245-1.424-.64-1.84-.395-.426-.923-.64-1.584-.64s-1.195.214-1.6.64c-.395.416-.603 1.03-.624 1.84-.011.16-.016.363-.016.608s.005.448.016.608c.021.81.229 1.43.624 1.856.405.416.939.624 1.6.624zm6.923 4.112a.308.308 0 0 1-.224-.096.307.307 0 0 1-.096-.224.51.51 0 0 1 .016-.128.844.844 0 0 1 .064-.16l1.232-2.928-3.056-7.216a.859.859 0 0 1-.08-.272.326.326 0 0 1 .336-.336h.784c.107 0 .192.027.256.08a.381.381 0 0 1 .128.192l2.432 5.824 2.496-5.824a.61.61 0 0 1 .128-.192.414.414 0 0 1 .272-.08h.752c.096 0 .176.032.24.096a.307.307 0 0 1 .096.224 1 1 0 0 1-.08.288l-4.544 10.48a.507.507 0 0 1-.144.192c-.053.053-.139.08-.256.08h-.752zm10.483-2.88c-.81 0-1.488-.154-2.032-.464a3.134 3.134 0 0 1-1.248-1.28c-.288-.554-.448-1.184-.48-1.888a12.77 12.77 0 0 1-.016-.688c0-.288.006-.517.016-.688.032-.715.192-1.344.48-1.888.299-.544.72-.97 1.264-1.28.544-.31 1.216-.464 2.016-.464s1.472.155 2.016.464c.544.31.96.736 1.248 1.28.299.544.464 1.173.496 1.888.011.17.016.4.016.688 0 .278-.005.507-.016.688-.032.704-.192 1.334-.48 1.888-.288.544-.704.97-1.248 1.28-.544.31-1.221.464-2.032.464zm0-1.232c.662 0 1.19-.208 1.584-.624.395-.426.608-1.045.64-1.856.011-.16.016-.362.016-.608 0-.245-.005-.448-.016-.608-.032-.81-.245-1.424-.64-1.84-.394-.426-.922-.64-1.584-.64-.661 0-1.194.214-1.6.64-.394.416-.602 1.03-.624 1.84-.01.16-.016.363-.016.608s.006.448.016.608c.022.81.23 1.43.624 1.856.406.416.939.624 1.6.624zm13.11 1.232c-.811 0-1.488-.154-2.032-.464a3.134 3.134 0 0 1-1.248-1.28c-.288-.554-.448-1.184-.48-1.888-.011-.181-.016-.41-.016-.688 0-.288.005-.517.016-.688.032-.715.192-1.344.48-1.888.298-.544.72-.97 1.264-1.28.544-.31 1.216-.464 2.016-.464s1.472.155 2.016.464c.544.31.96.736 1.248 1.28.298.544.464 1.173.496 1.888.01.17.016.4.016.688 0 .278-.006.507-.016.688-.032.704-.192 1.334-.48 1.888-.288.544-.704.97-1.248 1.28-.544.31-1.222.464-2.032.464zm0-1.232c.661 0 1.189-.208 1.584-.624.394-.426.608-1.045.64-1.856.01-.16.016-.362.016-.608 0-.245-.006-.448-.016-.608-.032-.81-.246-1.424-.64-1.84-.395-.426-.923-.64-1.584-.64-.662 0-1.195.214-1.6.64-.395.416-.603 1.03-.624 1.84-.011.16-.016.363-.016.608s.005.448.016.608c.021.81.229 1.43.624 1.856.405.416.938.624 1.6.624zm6.147 1.072a.406.406 0 0 1-.272-.096.404.404 0 0 1-.096-.272v-7.584c0-.106.032-.192.096-.256a.372.372 0 0 1 .272-.112h.752a.32.32 0 0 1 .256.112.32.32 0 0 1 .112.256v.704a3.209 3.209 0 0 1 1.04-.88c.427-.235.971-.352 1.632-.352.694 0 1.28.155 1.76.464.491.299.859.72 1.104 1.264.246.533.368 1.157.368 1.872v4.512a.404.404 0 0 1-.096.272.345.345 0 0 1-.256.096h-.8a.406.406 0 0 1-.272-.096.404.404 0 0 1-.096-.272v-4.432c0-.746-.181-1.328-.544-1.744-.362-.426-.896-.64-1.6-.64-.661 0-1.194.214-1.6.64-.394.416-.592.998-.592 1.744v4.432a.369.369 0 0 1-.112.272.345.345 0 0 1-.256.096h-.8zm9.719 0a.406.406 0 0 1-.272-.096.404.404 0 0 1-.096-.272V43.854c0-.106.032-.192.096-.256a.372.372 0 0 1 .272-.112h.752c.118 0 .208.038.272.112.064.064.096.15.096.256v10.624a.404.404 0 0 1-.096.272c-.064.064-.154.096-.272.096h-.752zm4.031 0a.406.406 0 0 1-.272-.096.404.404 0 0 1-.096-.272v-7.584c0-.106.032-.192.096-.256a.372.372 0 0 1 .272-.112h.768a.32.32 0 0 1 .256.112c.064.064.096.15.096.256v7.584a.404.404 0 0 1-.096.272.345.345 0 0 1-.256.096h-.768zm-.128-9.872a.406.406 0 0 1-.272-.096.404.404 0 0 1-.096-.272v-.864c0-.106.032-.192.096-.256a.372.372 0 0 1 .272-.112h1.008a.32.32 0 0 1 .256.112.32.32 0 0 1 .112.256v.864a.369.369 0 0 1-.112.272.345.345 0 0 1-.256.096h-1.008zm4.16 9.872a.402.402 0 0 1-.272-.096.404.404 0 0 1-.096-.272v-7.584c0-.106.032-.192.096-.256a.369.369 0 0 1 .272-.112h.752c.106 0 .192.037.256.112.074.064.112.15.112.256v.704a3.198 3.198 0 0 1 1.04-.88c.426-.235.97-.352 1.632-.352.693 0 1.28.155 1.76.464.49.299.858.72 1.104 1.264.245.533.368 1.157.368 1.872v4.512a.404.404 0 0 1-.096.272.347.347 0 0 1-.256.096h-.8a.402.402 0 0 1-.272-.096.404.404 0 0 1-.096-.272v-4.432c0-.746-.182-1.328-.544-1.744-.363-.426-.896-.64-1.6-.64-.662 0-1.195.214-1.6.64-.395.416-.592.998-.592 1.744v4.432a.373.373 0 0 1-.112.272.347.347 0 0 1-.256.096h-.8zm12.647.16c-1.099 0-1.974-.336-2.624-1.008-.651-.682-1.008-1.61-1.072-2.784a6.942 6.942 0 0 1-.016-.528c0-.224.005-.405.016-.544.042-.757.218-1.419.528-1.984a3.295 3.295 0 0 1 1.264-1.328c.544-.31 1.178-.464 1.904-.464.81 0 1.488.17 2.032.512.554.341.976.827 1.264 1.456.288.63.432 1.365.432 2.208v.272a.34.34 0 0 1-.112.272.347.347 0 0 1-.256.096h-5.536V51.326c.021.438.117.848.288 1.232.17.373.416.678.736.912.32.235.704.352 1.152.352.384 0 .704-.059.96-.176a2.61 2.61 0 0 0 .624-.384c.16-.15.266-.261.32-.336.096-.139.17-.218.224-.24a.515.515 0 0 1 .256-.048h.768c.106 0 .192.032.256.096.074.053.106.133.096.24-.011.16-.096.358-.256.592-.16.224-.39.448-.688.672-.299.224-.662.41-1.088.56a4.765 4.765 0 0 1-1.472.208zm-2.176-4.928h4.384v-.048c0-.48-.091-.907-.272-1.28a2.029 2.029 0 0 0-.752-.88c-.331-.224-.726-.336-1.184-.336-.459 0-.854.112-1.184.336-.32.214-.566.507-.736.88-.171.373-.256.8-.256 1.28v.048zm14.059 4.928a3.274 3.274 0 0 1-1.456-.32 2.804 2.804 0 0 1-1.056-.864 2.025 2.025 0 0 1-.4-1.232c0-.736.298-1.323.896-1.76.597-.437 1.376-.725 2.336-.864l2.384-.336v-.464c0-.512-.15-.912-.448-1.2-.288-.288-.763-.432-1.424-.432-.48 0-.87.096-1.168.288a1.557 1.557 0 0 0-.608.736c-.064.16-.176.24-.336.24h-.72c-.118 0-.208-.032-.272-.096a.425.425 0 0 1-.08-.256c0-.16.058-.357.176-.592.128-.234.32-.464.576-.688.256-.224.581-.41.976-.56.405-.16.896-.24 1.472-.24.64 0 1.178.086 1.616.256.437.16.778.379 1.024.656.256.278.437.592.544.944.117.352.176.71.176 1.072v5.184a.373.373 0 0 1-.112.272.347.347 0 0 1-.256.096h-.736c-.118 0-.208-.032-.272-.096a.404.404 0 0 1-.096-.272v-.688a3.16 3.16 0 0 1-.56.576 3.251 3.251 0 0 1-.88.464c-.352.117-.784.176-1.296.176zm.336-1.2c.437 0 .837-.09 1.2-.272.362-.192.645-.485.848-.88.213-.395.32-.89.32-1.488v-.448l-1.856.272c-.758.107-1.328.288-1.712.544-.384.245-.576.56-.576.944 0 .299.085.55.256.752.181.192.405.336.672.432.277.096.56.144.848.144zm13.454 1.2c-.758 0-1.414-.144-1.968-.432a3.131 3.131 0 0 1-1.264-1.264c-.299-.555-.459-1.216-.48-1.984a9.846 9.846 0 0 1-.016-.64c0-.267.005-.48.016-.64.021-.768.181-1.424.48-1.968.298-.555.72-.976 1.264-1.264.554-.298 1.21-.448 1.968-.448.618 0 1.146.086 1.584.256.448.17.816.39 1.104.656.288.267.501.555.64.864.149.31.229.603.24.88a.283.283 0 0 1-.096.256.406.406 0 0 1-.272.096h-.768c-.107 0-.187-.021-.24-.064a.865.865 0 0 1-.16-.256c-.192-.523-.454-.89-.784-1.104-.331-.213-.742-.32-1.232-.32-.64 0-1.163.197-1.568.592-.395.395-.608 1.03-.64 1.904-.011.384-.011.758 0 1.12.032.886.245 1.526.64 1.92.405.384.928.576 1.568.576.49 0 .901-.106 1.232-.32.33-.213.592-.581.784-1.104a.649.649 0 0 1 .16-.24c.053-.053.133-.08.24-.08h.768c.106 0 .197.032.272.096.074.064.106.15.096.256a2.356 2.356 0 0 1-.144.688 2.673 2.673 0 0 1-.416.72 3.082 3.082 0 0 1-.688.64 3.85 3.85 0 0 1-1.008.448c-.384.107-.822.16-1.312.16zm8.572 0c-.683 0-1.264-.15-1.744-.448a2.935 2.935 0 0 1-1.072-1.28c-.246-.544-.368-1.168-.368-1.872v-4.512c0-.106.032-.192.096-.256a.369.369 0 0 1 .272-.112h.8c.106 0 .192.037.256.112.074.064.112.15.112.256v4.432c0 1.59.693 2.384 2.08 2.384.661 0 1.189-.208 1.584-.624.405-.426.608-1.013.608-1.76v-4.432c0-.106.032-.192.096-.256a.369.369 0 0 1 .272-.112h.784a.34.34 0 0 1 .272.112c.064.064.096.15.096.256v7.584a.404.404 0 0 1-.096.272.368.368 0 0 1-.272.096h-.736a.402.402 0 0 1-.272-.096.404.404 0 0 1-.096-.272v-.704c-.288.373-.64.672-1.056.896-.406.224-.944.336-1.616.336zm6.889-.16a.402.402 0 0 1-.272-.096.404.404 0 0 1-.096-.272V46.91c0-.106.032-.197.096-.272a.369.369 0 0 1 .272-.112h.736c.106 0 .197.037.272.112a.373.373 0 0 1 .112.272v.704c.213-.362.506-.634.88-.816.373-.181.821-.272 1.344-.272h.64c.106 0 .192.037.256.112.064.064.096.15.096.256v.656a.346.346 0 0 1-.096.256.347.347 0 0 1-.256.096h-.96c-.576 0-1.03.17-1.36.512-.331.33-.496.784-.496 1.36v4.704a.373.373 0 0 1-.112.272.406.406 0 0 1-.272.096h-.784zm8.59.16c-.597 0-1.109-.075-1.536-.224-.427-.15-.773-.33-1.04-.544a2.801 2.801 0 0 1-.608-.64c-.128-.213-.197-.384-.208-.512a.285.285 0 0 1 .112-.272.426.426 0 0 1 .256-.096h.704c.064 0 .112.01.144.032.043.01.096.053.16.128.139.15.293.299.464.448.171.15.379.272.624.368.256.096.571.144.944.144.544 0 .992-.101 1.344-.304.352-.213.528-.523.528-.928 0-.267-.075-.48-.224-.64-.139-.16-.395-.304-.768-.432a13.053 13.053 0 0 0-1.504-.4c-.64-.15-1.147-.33-1.52-.544-.373-.224-.64-.485-.8-.784a2.23 2.23 0 0 1-.24-1.04c0-.395.117-.773.352-1.136.235-.373.576-.677 1.024-.912.459-.235 1.029-.352 1.712-.352.555 0 1.029.07 1.424.208.395.139.72.315.976.528.256.203.448.406.576.608.128.203.197.373.208.512a.32.32 0 0 1-.096.272.383.383 0 0 1-.256.096h-.672a.365.365 0 0 1-.192-.048 1.198 1.198 0 0 1-.128-.112 3.463 3.463 0 0 0-.384-.416 1.506 1.506 0 0 0-.56-.336c-.224-.096-.523-.144-.896-.144-.533 0-.933.112-1.2.336a1.06 1.06 0 0 0-.4.848c0 .203.059.384.176.544.117.16.341.304.672.432s.821.267 1.472.416c.704.139 1.259.325 1.664.56.405.235.693.507.864.816.171.31.256.667.256 1.072 0 .448-.133.859-.4 1.232-.256.373-.64.672-1.152.896-.501.214-1.125.32-1.872.32zm8.684 0c-.811 0-1.488-.154-2.032-.464a3.134 3.134 0 0 1-1.248-1.28c-.288-.554-.448-1.184-.48-1.888-.011-.181-.016-.41-.016-.688 0-.288.005-.517.016-.688.032-.715.192-1.344.48-1.888.299-.544.72-.97 1.264-1.28.544-.31 1.216-.464 2.016-.464s1.472.155 2.016.464c.544.31.96.736 1.248 1.28.299.544.464 1.173.496 1.888.011.17.016.4.016.688 0 .278-.005.507-.016.688-.032.704-.192 1.334-.48 1.888-.288.544-.704.97-1.248 1.28-.544.31-1.221.464-2.032.464zm0-1.232c.661 0 1.189-.208 1.584-.624.395-.426.608-1.045.64-1.856.011-.16.016-.362.016-.608 0-.245-.005-.448-.016-.608-.032-.81-.245-1.424-.64-1.84-.395-.426-.923-.64-1.584-.64s-1.195.214-1.6.64c-.395.416-.603 1.03-.624 1.84-.011.16-.016.363-.016.608s.005.448.016.608c.021.81.229 1.43.624 1.856.405.416.939.624 1.6.624zm8.66 1.232c-.598 0-1.11-.075-1.536-.224-.427-.15-.774-.33-1.04-.544a2.78 2.78 0 0 1-.608-.64c-.128-.213-.198-.384-.208-.512-.011-.117.026-.208.112-.272a.423.423 0 0 1 .256-.096h.704c.064 0 .112.01.144.032.042.01.096.053.16.128.138.15.293.299.464.448.17.15.378.272.624.368.256.096.57.144.944.144.544 0 .992-.101 1.344-.304.352-.213.528-.523.528-.928 0-.267-.075-.48-.224-.64-.139-.16-.395-.304-.768-.432a13.053 13.053 0 0 0-1.504-.4c-.64-.15-1.147-.33-1.52-.544-.374-.224-.64-.485-.8-.784a2.23 2.23 0 0 1-.24-1.04c0-.395.117-.773.352-1.136.234-.373.576-.677 1.024-.912.458-.235 1.029-.352 1.712-.352.554 0 1.029.07 1.424.208.394.139.72.315.976.528.256.203.448.406.576.608.128.203.197.373.208.512a.325.325 0 0 1-.096.272.383.383 0 0 1-.256.096h-.672a.365.365 0 0 1-.192-.048 1.108 1.108 0 0 1-.128-.112 3.463 3.463 0 0 0-.384-.416 1.514 1.514 0 0 0-.56-.336c-.224-.096-.523-.144-.896-.144-.534 0-.934.112-1.2.336a1.06 1.06 0 0 0-.4.848c0 .203.058.384.176.544.117.16.341.304.672.432.33.128.821.267 1.472.416.704.139 1.258.325 1.664.56.405.235.693.507.864.816.17.31.256.667.256 1.072 0 .448-.134.859-.4 1.232-.256.373-.64.672-1.152.896-.502.214-1.126.32-1.872.32zM143.036 30.092a.61.61 0 0 1-.45-.18.68.68 0 0 1-.18-.45c0-.1.01-.19.03-.27l7.14-19.29c.06-.22.18-.41.36-.57.18-.16.43-.24.75-.24h3.84c.32 0 .57.08.75.24.18.16.3.35.36.57l7.14 19.29c.02.08.03.17.03.27 0 .16-.06.31-.18.45a.61.61 0 0 1-.45.18h-3.12c-.3 0-.52-.07-.66-.21-.14-.14-.23-.27-.27-.39l-1.29-3.36h-8.46l-1.29 3.36c-.04.12-.13.25-.27.39s-.36.21-.66.21h-3.12zm6.45-7.83h6.21l-3.09-8.64-3.12 8.64zm21.127 8.13c-1.16 0-2.19-.26-3.09-.78-.88-.54-1.57-1.31-2.07-2.31-.48-1.02-.72-2.25-.72-3.69v-8.37c0-.22.07-.4.21-.54.14-.14.31-.21.51-.21h3.18c.22 0 .4.07.54.21.14.14.21.32.21.54v8.19c0 2.24.98 3.36 2.94 3.36.94 0 1.68-.29 2.22-.87.56-.6.84-1.43.84-2.49v-8.19c0-.22.07-.4.21-.54.14-.14.32-.21.54-.21h3.18c.2 0 .37.07.51.21.14.14.21.32.21.54v14.1c0 .22-.07.4-.21.54-.14.14-.31.21-.51.21h-2.94c-.22 0-.4-.07-.54-.21a.731.731 0 0 1-.21-.54v-1.17a5.06 5.06 0 0 1-2.01 1.65c-.82.38-1.82.57-3 .57zm13.946-.3c-.22 0-.4-.07-.54-.21a.731.731 0 0 1-.21-.54v-19.8c0-.22.07-.4.21-.54.14-.14.32-.21.54-.21h3c.2 0 .37.07.51.21.14.14.21.32.21.54v19.8c0 .22-.07.4-.21.54-.14.14-.31.21-.51.21h-3zm12.102.3c-1.06 0-2.01-.2-2.85-.6-.84-.42-1.51-.98-2.01-1.68-.5-.7-.75-1.48-.75-2.34 0-1.42.57-2.54 1.71-3.36 1.16-.82 2.68-1.38 4.56-1.68l3.93-.57v-.54c0-.78-.18-1.38-.54-1.8-.36-.42-.99-.63-1.89-.63-.66 0-1.19.13-1.59.39-.4.26-.71.6-.93 1.02-.16.26-.39.39-.69.39h-2.85c-.22 0-.39-.06-.51-.18a.606.606 0 0 1-.15-.48c0-.34.13-.74.39-1.2.26-.46.66-.91 1.2-1.35.54-.46 1.23-.84 2.07-1.14.84-.3 1.87-.45 3.09-.45 1.26 0 2.34.15 3.24.45.9.3 1.62.72 2.16 1.26s.94 1.17 1.2 1.89c.26.7.39 1.46.39 2.28v9.27c0 .22-.07.4-.21.54-.14.14-.32.21-.54.21h-2.94c-.2 0-.37-.07-.51-.21a.731.731 0 0 1-.21-.54v-1.11c-.26.38-.61.74-1.05 1.08-.44.32-.97.58-1.59.78-.6.2-1.31.3-2.13.3zm1.2-3.12c.66 0 1.25-.14 1.77-.42.52-.28.93-.71 1.23-1.29.3-.58.45-1.31.45-2.19v-.51l-2.79.45c-1.08.18-1.87.45-2.37.81-.5.36-.75.8-.75 1.32 0 .38.11.71.33.99.24.28.55.49.93.63s.78.21 1.2.21zm17.762 3.12c-1.24 0-2.31-.14-3.21-.42-.88-.3-1.6-.66-2.16-1.08-.54-.42-.95-.84-1.23-1.26-.26-.44-.4-.81-.42-1.11-.02-.22.05-.4.21-.54.16-.14.32-.21.48-.21h2.91c.06 0 .12.01.18.03a.4.4 0 0 1 .18.15c.26.18.53.39.81.63.28.22.6.41.96.57.38.16.85.24 1.41.24.66 0 1.22-.13 1.68-.39.46-.28.69-.67.69-1.17 0-.36-.11-.66-.33-.9-.2-.24-.59-.46-1.17-.66s-1.44-.42-2.58-.66c-1.08-.24-2-.56-2.76-.96-.76-.4-1.33-.9-1.71-1.5-.38-.62-.57-1.36-.57-2.22 0-.78.24-1.53.72-2.25.5-.72 1.23-1.31 2.19-1.77.96-.48 2.16-.72 3.6-.72 1.1 0 2.06.14 2.88.42.84.26 1.54.6 2.1 1.02.56.4.98.82 1.26 1.26.3.42.46.79.48 1.11.02.2-.04.37-.18.51a.66.66 0 0 1-.48.21h-2.67c-.1 0-.19-.01-.27-.03a.8.8 0 0 1-.21-.15c-.24-.16-.49-.34-.75-.54a3.45 3.45 0 0 0-.87-.57c-.34-.16-.78-.24-1.32-.24-.66 0-1.17.15-1.53.45-.34.28-.51.64-.51 1.08 0 .28.09.54.27.78.18.24.55.46 1.11.66s1.41.41 2.55.63c1.36.24 2.44.6 3.24 1.08.8.48 1.37 1.04 1.71 1.68.36.62.54 1.29.54 2.01 0 .94-.28 1.78-.84 2.52-.56.72-1.38 1.29-2.46 1.71-1.06.4-2.37.6-3.93.6z" fill="#661020"/><path fill-rule="evenodd" clip-rule="evenodd" d="M37.948 51.853c.253 0 .45.032.59.078a.46.46 0 0 1 .222.177c.057.083.088.229.088.427v1.799c0 .462-.062.795-.176.988-.12.187-.3.338-.543.442a2.162 2.162 0 0 1-.87.16 1.86 1.86 0 0 1-.734-.13.962.962 0 0 1-.424-.316c-.082-.13-.124-.39-.124-.785v-2.164c0-.25.016-.41.057-.473a.393.393 0 0 1 .197-.145c.093-.037.263-.058.501-.058h.166v-.12h-3.264v.12c.27 0 .45.021.548.057.104.037.171.084.212.146.042.063.063.219.063.473v2.163c0 .364.082.66.248.874.17.218.455.395.858.536.3.104.72.15 1.267.15.657 0 1.17-.098 1.547-.29.377-.193.615-.406.714-.63.098-.234.15-.608.15-1.128v-1.675c0-.182.02-.307.062-.374a.5.5 0 0 1 .253-.229c.12-.047.264-.078.445-.078h.13v-.12h-2.183v.125zM45.426 53.133a.71.71 0 0 0-.413-.115c-.202 0-.414.052-.631.156-.218.104-.471.312-.76.63v-.692h-1.78v.114c.15.01.254.031.316.057a.308.308 0 0 1 .134.136c.026.052.036.16.036.338v1.68c0 .264-.036.43-.103.493s-.197.099-.383.11v.114h2.354v-.115c-.171-.005-.295-.02-.368-.052a.318.318 0 0 1-.165-.13c-.021-.036-.031-.114-.031-.234v-.889c0-.255.046-.489.15-.697a.664.664 0 0 1 .29-.317.493.493 0 0 1 .253-.073.24.24 0 0 1 .108.021c.021.005.093.047.212.12a.808.808 0 0 0 .424.114.588.588 0 0 0 .368-.12.413.413 0 0 0 .15-.343.36.36 0 0 0-.16-.306zM51.452 55.499v-2.387h-1.774v.114c.191.021.32.052.383.115.062.057.093.202.093.436v1.628c-.176.172-.32.28-.445.338a.704.704 0 0 1-.3.062.485.485 0 0 1-.222-.046.283.283 0 0 1-.14-.14c-.026-.063-.041-.204-.041-.422v-2.08h-1.774v.114c.19.021.32.052.382.115.062.057.093.203.093.437v1.206c0 .354.037.598.099.738.067.14.191.266.382.37.192.104.404.156.652.156.259 0 .486-.037.693-.115a2.22 2.22 0 0 0 .62-.38v.406h1.775v-.114c-.191-.01-.316-.052-.383-.11-.062-.057-.093-.207-.093-.441zM57.534 55.956c-.243-.099-.698-.15-1.35-.15l-.812.01c-.191 0-.33-.027-.419-.079-.088-.046-.129-.114-.129-.192 0-.088.047-.161.145-.229a.586.586 0 0 1 .352-.099c.351.016.538.016.558.016.228 0 .492-.047.786-.135.295-.094.533-.218.704-.374a.75.75 0 0 0 .253-.567.63.63 0 0 0-.114-.364 1.176 1.176 0 0 0-.315-.291h.838v-.36h-1.47a3.21 3.21 0 0 0-.894-.13c-.548 0-.993.11-1.34.328-.346.219-.522.473-.522.775 0 .229.093.432.28.603.186.172.486.312.91.421-.357.104-.62.23-.786.37-.166.14-.249.28-.249.437 0 .25.202.442.605.577-.294.057-.49.124-.6.202-.108.078-.16.172-.16.27 0 .105.073.204.207.303.14.093.372.166.698.223.326.052.683.078 1.076.078.523 0 .983-.052 1.386-.156.264-.073.481-.182.642-.338.16-.15.243-.317.243-.504.005-.286-.176-.505-.523-.645zm-2.229-2.543a.623.623 0 0 1 .455-.187c.181 0 .32.052.42.156.139.146.211.406.211.796 0 .343-.062.577-.191.691a.642.642 0 0 1-.466.177.596.596 0 0 1-.434-.177c-.124-.12-.181-.343-.181-.666 0-.4.062-.66.186-.79zm1.624 3.843c-.248.083-.584.12-1.024.12-.507 0-.853-.047-1.04-.136-.18-.093-.274-.192-.274-.301 0-.12.088-.208.264-.276.104-.036.316-.057.631-.057.735 0 1.19.015 1.355.036.17.026.3.068.383.14a.159.159 0 0 1 .067.136c.005.14-.119.255-.362.338zM63.917 55.499v-2.387h-1.77v.114c.192.021.316.052.384.115.062.057.093.202.093.436v1.628c-.176.172-.321.28-.445.338a.687.687 0 0 1-.3.062.478.478 0 0 1-.217-.046.305.305 0 0 1-.14-.14c-.031-.063-.047-.204-.047-.422v-2.08h-1.774v.114c.197.021.321.052.383.115.062.057.093.203.093.437v1.206c0 .354.031.598.099.738.067.14.196.266.382.37.192.104.404.156.652.156.258 0 .491-.037.693-.115.207-.078.419-.208.626-.38v.406h1.769v-.114c-.192-.01-.316-.052-.378-.11-.067-.057-.103-.207-.103-.441zM70.133 55.785a.257.257 0 0 1-.108-.026.165.165 0 0 1-.067-.078.903.903 0 0 1-.021-.26v-1.186c0-.328-.02-.536-.067-.63-.073-.14-.228-.275-.466-.394-.243-.125-.569-.188-.977-.188-.347 0-.673.042-.988.115-.316.073-.564.187-.74.327-.176.14-.264.292-.264.453 0 .109.068.208.197.286.13.083.295.125.491.125a.775.775 0 0 0 .445-.115c.114-.073.17-.166.17-.27 0-.089-.056-.177-.175-.276-.088-.067-.135-.12-.135-.166 0-.052.042-.099.125-.14a1.16 1.16 0 0 1 .496-.094c.124 0 .233.02.331.062.098.047.17.099.202.161.036.063.052.203.052.437v.302c-.957.312-1.578.556-1.862.743-.29.188-.43.396-.43.63 0 .171.083.312.249.426.16.114.367.172.615.172.419 0 .895-.162 1.427-.494a.521.521 0 0 0 .26.369c.139.083.33.12.578.12.212 0 .399-.037.57-.11.165-.073.325-.192.48-.353l-.14-.078c-.082.088-.165.13-.248.13zm-1.5-.312c-.201.12-.382.176-.532.176-.14 0-.248-.026-.326-.088-.104-.073-.155-.161-.155-.26 0-.12.062-.24.18-.354.182-.176.461-.338.834-.494v1.02zM75.114 53.226c.192.005.326.031.404.078a.219.219 0 0 1 .114.198c0 .125-.094.359-.28.686l-.507.926-.744-1.196c-.156-.245-.233-.411-.233-.494 0-.052.03-.099.093-.135.062-.037.17-.058.32-.063v-.114h-2.317v.114c.14.031.264.083.368.161.098.084.258.292.465.635l1.407 2.267-.14.25c-.165.327-.31.535-.434.624a.405.405 0 0 1-.238.098.146.146 0 0 1-.103-.036c-.026-.026-.042-.078-.047-.161-.005-.14-.052-.25-.145-.323a.638.638 0 0 0-.377-.104.644.644 0 0 0-.404.125.368.368 0 0 0-.165.312c0 .146.082.27.238.375.16.098.367.15.625.15.321 0 .59-.093.807-.27.15-.13.383-.478.698-1.045l1.247-2.262c.212-.385.367-.614.45-.681a.658.658 0 0 1 .352-.115v-.114h-1.454v.114zM4.505 44.89c.269 0 .48.021.626.073.093.031.17.089.232.172.063.083.094.229.094.426v1.773c0 .468-.063.786-.187.973-.129.187-.315.333-.563.437-.254.109-.559.16-.916.16-.31 0-.569-.04-.77-.124-.207-.083-.352-.187-.44-.312-.093-.13-.14-.385-.14-.775v-2.132c0-.25.02-.41.062-.473a.45.45 0 0 1 .202-.15c.098-.037.274-.053.528-.053h.17v-.114H0v.114c.28 0 .47.01.574.052a.397.397 0 0 1 .217.151c.042.062.068.218.068.473v2.132c0 .359.087.65.258.863.176.214.476.39.9.53.316.1.755.152 1.33.152.682 0 1.22-.094 1.618-.286.393-.193.647-.396.75-.624.104-.224.15-.598.15-1.108v-1.654c0-.176.02-.301.062-.374a.506.506 0 0 1 .27-.224c.123-.052.278-.072.465-.072h.134v-.115H4.505v.11zM12.8 44.89c.368-.005.632.053.787.177.114.1.17.27.17.536v1.872l-3.252-2.699H8.155v.114c.202.006.357.021.466.063.108.036.233.114.372.234l.145.114v3.068c0 .234-.072.4-.217.5-.145.098-.393.145-.755.145v.12h2.338v-.12h-.16c-.223 0-.425-.042-.596-.13-.175-.088-.258-.26-.258-.515v-2.771l4.463 3.635h.166v-3.63c0-.203.026-.354.083-.437a.433.433 0 0 1 .227-.182c.098-.036.285-.068.564-.093v-.115h-2.188v.114h-.005zM16.489 44.89h.217c.191 0 .336.021.445.063a.464.464 0 0 1 .217.145c.036.052.057.198.057.422v2.87c0 .218-.016.354-.057.406a.37.37 0 0 1-.196.156 1.44 1.44 0 0 1-.466.062h-.217v.12h3.455v-.12h-.217c-.187 0-.332-.02-.44-.062a.464.464 0 0 1-.217-.146c-.037-.057-.057-.198-.057-.421v-2.87c0-.219.02-.36.051-.406a.427.427 0 0 1 .202-.156c.114-.047.274-.068.46-.068h.218v-.114h-3.455v.12zM26.145 44.89c.233 0 .414.021.553.052a.447.447 0 0 1 .228.115.204.204 0 0 1 .078.166c0 .057-.021.125-.052.203-.037.078-.13.234-.29.468l-1.303 1.934-1.412-2.168c-.15-.229-.233-.37-.264-.421a.314.314 0 0 1-.036-.14c0-.063.036-.11.108-.141.104-.047.3-.068.585-.068h.108v-.114h-3.17v.114c.253.021.43.063.527.136.094.072.275.322.549.743l2.26 3.463h.17l2.276-3.328c.274-.4.471-.655.61-.764.192-.146.404-.224.647-.255v-.114H26.15v.12h-.005zM30.53 48.796a.37.37 0 0 1-.196.156 1.44 1.44 0 0 1-.465.062h-.223v.12h5.72l.296-1.389h-.181c-.16.385-.43.671-.807.858-.373.188-.87.281-1.485.281h-.398c-.186 0-.326-.016-.414-.052a.355.355 0 0 1-.17-.13c-.031-.057-.047-.203-.047-.442v-1.222c.316 0 .559.026.73.083.165.057.31.161.439.323.124.156.212.364.248.608h.192v-2.288h-.192c-.051.338-.17.598-.362.77-.191.176-.496.265-.915.265h-.13v-1.773h.694c.496 0 .837.02 1.024.057.31.067.553.166.724.307.165.135.3.364.393.68h.191v-1.289h-5.544v.115h.222c.212 0 .383.03.507.088.088.042.15.099.18.172.017.046.027.166.027.369v2.87c0 .213-.02.349-.057.4zM39.897 48.816c-.04-.062-.067-.208-.067-.447v-1.227h.435l2.125 1.992h2.085v-.12a1.079 1.079 0 0 1-.466-.11c-.088-.046-.233-.166-.444-.353l-1.578-1.482c.398-.067.714-.166.936-.296.352-.208.528-.473.528-.796 0-.265-.12-.494-.352-.691-.233-.193-.533-.328-.905-.4-.367-.074-.957-.11-1.754-.11h-3.072v.114c.305 0 .512.021.62.053.115.036.192.083.234.145.041.063.067.213.067.442v2.84c0 .239-.02.384-.067.447a.446.446 0 0 1-.228.145c-.108.036-.315.057-.626.057v.12h3.393v-.12c-.3 0-.512-.015-.626-.052a.485.485 0 0 1-.238-.15zm-.062-3.796h.523c.522 0 .9.078 1.138.24.237.156.351.4.351.733 0 .229-.062.41-.191.556-.13.14-.305.24-.528.291-.227.058-.563.084-1.013.084h-.28V45.02zM48.281 49.233c.668 0 1.21-.13 1.645-.39.43-.26.652-.578.652-.937 0-.285-.135-.54-.404-.764-.269-.224-.786-.458-1.562-.712-.553-.182-.905-.302-1.06-.375-.207-.099-.362-.197-.455-.301a.35.35 0 0 1-.104-.255c0-.15.099-.286.29-.406.192-.114.455-.177.786-.177.43 0 .833.11 1.2.333.373.224.605.515.699.88h.201l-.057-1.457h-.15c-.041.135-.093.213-.14.25-.046.036-.113.052-.201.052-.088 0-.238-.037-.46-.104a6.034 6.034 0 0 0-.559-.146 3.489 3.489 0 0 0-.62-.052c-.59 0-1.076.12-1.464.37-.383.244-.58.54-.58.883 0 .203.073.39.207.557.14.171.347.322.605.462.264.136.699.302 1.299.494.429.14.729.25.9.338.17.089.294.177.377.276.083.099.13.193.13.302 0 .171-.11.327-.326.452-.218.13-.507.198-.875.198-.47 0-.915-.125-1.324-.37a1.816 1.816 0 0 1-.827-1.055h-.176v1.648h.176a.524.524 0 0 1 .227-.197.67.67 0 0 1 .27-.063c.098 0 .227.021.382.063.285.078.517.13.704.16.191.032.388.043.594.043zM53.086 48.796a.391.391 0 0 1-.196.156 1.44 1.44 0 0 1-.466.062h-.222v.12h3.455v-.12h-.217c-.187 0-.331-.02-.44-.062a.494.494 0 0 1-.217-.146c-.036-.057-.057-.198-.057-.421v-2.87c0-.219.02-.36.052-.406a.428.428 0 0 1 .201-.156c.12-.047.27-.068.46-.068h.218v-.114h-3.455v.114h.222c.187 0 .331.021.44.063a.464.464 0 0 1 .217.145c.036.052.052.198.052.421v2.87c.005.224-.01.36-.047.412zM57.938 48.796a.46.46 0 0 1-.228.166 1.376 1.376 0 0 1-.445.057h-.222v.12h2.964c.424 0 .74-.016.94-.042.45-.052.828-.135 1.139-.234.31-.104.584-.239.822-.4.238-.172.43-.385.58-.64.15-.26.222-.54.222-.847 0-.442-.15-.843-.455-1.196-.306-.349-.75-.614-1.345-.786-.481-.14-1.117-.213-1.908-.213h-2.964v.115h.222c.186 0 .336.02.445.062a.464.464 0 0 1 .217.146c.037.052.052.197.052.42v2.871c.005.224-.01.36-.036.4zm1.629-3.776c.548 0 .941.032 1.174.1.336.093.605.27.817.535.27.333.404.78.404 1.336 0 .692-.197 1.207-.585 1.534-.29.25-.708.37-1.251.37-.171 0-.295-.01-.383-.047a.242.242 0 0 1-.135-.094c-.025-.041-.041-.15-.041-.333v-3.4zM69.75 48.947c-.103.051-.284.072-.542.072h-.13v.115h3.197v-.115a.964.964 0 0 1-.47-.114c-.15-.089-.332-.302-.565-.645l-2.384-3.572h-.088L66.4 48.166c-.222.333-.408.557-.563.666a1.237 1.237 0 0 1-.585.193v.114h2.198v-.114c-.346-.016-.558-.042-.651-.073-.15-.063-.228-.151-.228-.276 0-.093.047-.208.14-.354l.29-.426h2.311l.357.54c.093.147.145.224.145.245.02.042.031.084.031.12.016.062-.02.114-.093.145zm-2.58-1.295 1.009-1.493.982 1.493h-1.99zM78.44 44.99c-.481-.141-1.122-.214-1.909-.214h-2.968v.114h.222c.186 0 .331.021.445.063a.465.465 0 0 1 .217.145c.036.053.052.198.052.422v2.87c0 .224-.016.364-.042.406a.484.484 0 0 1-.227.166 1.354 1.354 0 0 1-.445.057h-.222v.12h2.968c.424 0 .74-.016.937-.042.45-.052.832-.135 1.143-.234.31-.104.584-.239.822-.4.238-.172.43-.385.58-.64.15-.26.222-.54.222-.847 0-.442-.156-.843-.46-1.196-.3-.354-.746-.62-1.335-.79zm-.553 3.535c-.285.25-.704.37-1.252.37a1.21 1.21 0 0 1-.383-.047.243.243 0 0 1-.134-.094c-.026-.041-.042-.15-.042-.333v-3.4c.543 0 .936.03 1.17.098.33.094.604.27.822.536.263.333.398.78.398 1.336.01.692-.186 1.202-.58 1.534zM93.398 45.317c-.657-.426-1.516-.635-2.566-.608-.972-.027-1.794.176-2.461.608-.668.431-1.004.972-1.004 1.617 0 .577.264 1.071.776 1.498.646.53 1.567.795 2.757.795 1.184 0 2.105-.275 2.751-.832.492-.42.735-.91.735-1.46 0-.646-.326-1.181-.988-1.618zm-1.009 2.855c-.16.301-.383.52-.667.655-.222.11-.502.161-.838.161-.496 0-.884-.125-1.164-.374-.398-.354-.594-.9-.594-1.649 0-.624.129-1.102.382-1.44.316-.406.771-.608 1.381-.608.326 0 .616.057.87.176.247.12.454.317.62.603.165.287.243.718.243 1.29.01.494-.073.884-.233 1.186zM102.19 48.551l-1.583-1.482c.399-.067.714-.166.942-.296.346-.208.522-.473.522-.796 0-.265-.119-.494-.352-.691-.232-.193-.532-.328-.905-.4-.372-.074-.956-.11-1.753-.11h-3.072v.114c.3 0 .512.021.62.053.109.036.192.083.233.145.041.063.062.213.062.442v2.84c0 .239-.02.384-.062.447-.041.062-.119.109-.233.145-.108.036-.315.057-.62.057v.12h3.393v-.12c-.306 0-.512-.015-.621-.052a.444.444 0 0 1-.233-.15c-.041-.063-.062-.209-.062-.448v-1.227h.43l2.125 1.992h2.079v-.12a1.096 1.096 0 0 1-.465-.11c-.088-.046-.233-.166-.445-.353zm-1.908-2.007c-.13.14-.305.24-.528.291-.222.057-.564.084-1.014.084h-.274V45.02h.517c.523 0 .9.078 1.133.239.238.156.352.4.352.733a.793.793 0 0 1-.186.551zM104.057 44.776v1.18h.186c.078-.322.254-.572.538-.743.197-.125.523-.187.973-.187h.47v3.364c0 .218-.015.354-.051.406a.393.393 0 0 1-.197.156 1.385 1.385 0 0 1-.46.062h-.223v.12h3.455v-.12h-.217a1.24 1.24 0 0 1-.44-.062.486.486 0 0 1-.222-.146c-.036-.057-.057-.197-.057-.421v-3.36h.492c.31 0 .527.022.651.058.223.073.398.166.523.286.124.12.243.317.346.593H110v-1.18h-5.943v-.006zM92.761 9.156H69.105v2.038c-1.934-1.94-6.692-2.017-6.692-2.017h-12.9V15.5C45.976 10.888 41.373 9 35.357 9 26.27 9 18.3 16.441 18.3 25.666c0 9.23 7.851 16.11 16.938 16.11 6.01 0 10.965-2.548 14.322-6.344v6.1h9.424V31.026l7.975 10.515h18.785V17.419h7.024V9.156h-.005zm-58.734 7.998-.03.046c-.275.432-.689 1.072-.999 1.982-.403-.047-.822-.11-1.252-.177 1.092-1.337 1.93-1.737 2.281-1.851zm-1.929 8.637c.016.925.072 1.804.176 2.615-.73.1-1.459.224-2.167.375-.29-.915-.45-1.919-.476-2.99h2.467zm-2.467-.63c.026-.972.16-1.908.398-2.771.714.172 1.454.307 2.209.416-.083.749-.13 1.544-.135 2.36h-2.472v-.004zm2.73 3.87c.13.8.306 1.539.523 2.204-.455.052-.93.125-1.412.203a8.597 8.597 0 0 1-1.153-2.06c.667-.145 1.355-.26 2.043-.348zm-.05-6.854a22.932 22.932 0 0 1-2.096-.395 9.335 9.335 0 0 1 1.107-2.216c.512.089 1.014.156 1.485.219-.212.749-.378 1.55-.497 2.392zm-.016-4.597c-.383.333-.849.76-1.257 1.305-.285-.047-.564-.104-.833-.156.58-.442 1.304-.925 2.09-1.149zm-2.949 1.872.233-.218c.197.046.57.124 1.06.218a9.768 9.768 0 0 0-1.05 2.184 20.658 20.658 0 0 1-1.592-.5 8.642 8.642 0 0 1 1.35-1.684zm-1.66 2.236c.31.12.905.322 1.728.546A11.862 11.862 0 0 0 29 25.162h-2.198a8.038 8.038 0 0 1 .884-3.474zm-.874 4.103H29c.026 1.118.191 2.168.491 3.13-.812.198-1.38.39-1.64.473a8.154 8.154 0 0 1-1.039-3.603zm2.534 5.533a8.1 8.1 0 0 1-1.153-1.373c.285-.094.802-.26 1.505-.427.28.734.642 1.415 1.086 2.039-.419.078-.744.145-.956.192a16.1 16.1 0 0 1-.482-.431zm1.149.93c.196-.036.44-.083.719-.13.326.385.677.744 1.055 1.066a9.043 9.043 0 0 1-1.774-.936zm3.367 1.264a8.819 8.819 0 0 1-.714-.442 8.061 8.061 0 0 1-1.205-1.071c.409-.063.791-.12 1.159-.161.34.858.703 1.43.992 1.788-.087-.041-.175-.088-.232-.114zm1.34.244c-.228-.093-.828-.55-1.449-1.991a21.762 21.762 0 0 1 1.448-.083v2.074zm0-2.698c-.508.01-1.071.041-1.682.098a13.359 13.359 0 0 1-.532-2.204c.74-.078 1.479-.125 2.213-.136v2.242zm0-2.87c-.766.015-1.542.062-2.302.14a22.637 22.637 0 0 1-.166-2.543h2.467v2.402zm0-3.032h-2.468c.005-.786.052-1.555.13-2.278.77.088 1.562.135 2.337.146v2.132zm0-2.762c-.75-.01-1.51-.062-2.26-.145.123-.843.294-1.654.511-2.392.631.062 1.216.099 1.743.104V22.4h.005zm0-3.057a21.74 21.74 0 0 1-1.542-.094c.517-1.383 1.117-2.049 1.541-2.23v2.324zm6.47.109a8.546 8.546 0 0 1 1.344 1.68c-.346.13-.884.312-1.598.499a9.995 9.995 0 0 0-1.05-2.184c.492-.094.864-.172 1.066-.219l.238.224zm-.978 9.927a8.442 8.442 0 0 1-1.158 2.059 38.467 38.467 0 0 0-1.412-.203c.217-.665.393-1.409.522-2.205.698.089 1.386.203 2.048.349zm-2.483-9.589c.476-.057.978-.13 1.485-.218.46.676.833 1.42 1.112 2.215-.683.161-1.386.291-2.095.395a18.534 18.534 0 0 0-.502-2.392zm.533 8.616c.099-.81.16-1.695.176-2.615h2.467a10.765 10.765 0 0 1-.476 2.99 26.93 26.93 0 0 0-2.167-.375zm.176-3.244a23.01 23.01 0 0 0-.134-2.361c.75-.11 1.49-.245 2.203-.416.238.863.372 1.799.393 2.771H38.92v.006zm1.888-6.438c-.264.057-.548.11-.828.156-.408-.54-.874-.967-1.251-1.305.78.229 1.505.712 2.079 1.149zm-1.536.28c-.43.068-.848.13-1.257.178-.305-.91-.719-1.55-.998-1.982l-.031-.046c.351.114 1.19.514 2.286 1.85zm-3.455-1.98c.43.176 1.03.842 1.546 2.23a22.06 22.06 0 0 1-1.546.094v-2.324zm0 2.948a19.919 19.919 0 0 0 1.743-.104c.222.738.393 1.55.512 2.392a23.44 23.44 0 0 1-2.26.146v-2.434h.005zm0 3.058c.78-.01 1.567-.063 2.338-.146.082.728.124 1.492.134 2.278h-2.472V23.03zm0 2.76h2.467c-.01.906-.067 1.764-.166 2.544a28.613 28.613 0 0 0-2.301-.14V25.79zm0 3.032c.734.01 1.474.058 2.219.136-.135.81-.31 1.554-.538 2.204a20.446 20.446 0 0 0-1.681-.098v-2.242zm0 4.94v-2.07c.445.006.93.037 1.448.084-.62 1.435-1.22 1.893-1.448 1.986zm1.34-.244a5.073 5.073 0 0 1-.233.114c.284-.358.651-.93.993-1.788.367.041.75.093 1.158.16-.367.401-.77.765-1.2 1.072-.243.166-.558.348-.719.442zm1.592-.333c.378-.322.73-.676 1.055-1.066.28.047.523.094.72.13a8.52 8.52 0 0 1-1.775.936zm2.923-1.861c-.145.14-.3.275-.481.426a30.324 30.324 0 0 0-.957-.192 9.357 9.357 0 0 0 1.086-2.039 17.45 17.45 0 0 1 1.5.427c-.331.499-.72.962-1.148 1.378zm1.494-1.924a18.504 18.504 0 0 0-1.634-.474c.3-.962.466-2.017.491-3.13h2.188a8.27 8.27 0 0 1-1.045 3.604zm-1.143-4.238a12.112 12.112 0 0 0-.419-2.928 17.854 17.854 0 0 0 1.728-.546 8.038 8.038 0 0 1 .884 3.474h-2.193zm19.587-1.176h-2.56V17.33h2.638s3.392-.114 3.356 3.178c-.046 3.676-3.434 3.478-3.434 3.478zm14.43 15.975L68.18 29.722c6.573-3.838 6.568-9.802 5.803-12.418h2.058v22.657z" fill="#661020"/><path d="M125.767-1v68" stroke="#661020" stroke-width="1.263" stroke-miterlimit="10"/></g><defs><clipPath id="a"><path fill="#661020" d="M0 0h319.077v68H0z"/></clipPath></defs></svg>